<svg version="1.2" xmlns="http://www.w3.org/2000/svg" viewBox="0 0 1400 500" width="1400" height="500">
	<style>
		.s0 { fill: #5eac2c } 
		.s1 { fill: #004e2b } 
		.s2 { fill: #004c2f } 
	</style>
	<g id="Calque 1">
		<g id="&lt;Group&gt;">
			<g id="&lt;Group&gt;">
				<path id="&lt;Path&gt;" class="s0" d="m250.74 388.77c10.56 0 59.27 0 70.47 0v-60.44c-10.76 29.76-56 60.44-70.47 60.44z"/>
				<path id="&lt;Compound Path&gt;" fill-rule="evenodd" class="s1" d="m333.92 259.11v142.19h-140.3c-58.94 0-106.72-47.78-106.72-106.72v-195.88h79.73c109.27 0 167.29 71.82 167.29 160.41zm-23.62-57.89c-24.8-54.93-65.07-90.42-154.89-90.42h-55.79v126.82c15.33-26.97 42.76-36.82 52.16-39.5 0 0 0.73-0.2 2-0.49q0.53-0.12 1.06-0.22c12.68-2.61 61.97-9.23 88.22 37.73q0.54 0.91 1.05 1.83 0.01 0.03 0.02 0.05 0.21 0.4 0.41 0.79 0.95 1.83 1.81 3.7 0.29 0.63 0.57 1.26 0.22 0.5 0.43 1.01c4.23 9.91 5.76 18.85 5.45 26.84q0.01 0.69 0.01 1.38c-0.74 33.33-29.89 61.09-63.3 60.26-25.52-0.63-48.15-24.85-46.98-50.26 1.02-22.17 24.89-40.45 46.61-35.69 13.88 3.04 23.62 17.17 21.63 31.37-1.72 12.22-11.77 20.44-23.97 19.25-7.98-0.77-14.11-4.42-15.64-12.94q-0.02-0.1-0.03-0.2c-1.62-9.49 12.44-12.28 14.62-2.9l0.06 0.27c0.28 1.18 1.33 2.01 2.55 2.03 5.18 0.08 8.68-2.44 8.89-8.55 0.3-8.67-4.72-14.29-14.08-15.18-16.27-1.54-29.27 13.14-26.51 29.25 3.32 19.44 21.41 32.47 41.03 29.3 33.84-5.46 50.88-39.48 35.79-71.45-15.13-32.08-50.25-45.16-84.74-31.56-46.49 18.32-62.03 69.42-42.54 116.11 24.84 51.52 85.05 71.74 141.08 47.39 67.38-29.29 90.21-105.44 63.02-177.28zm10.91 127.11c-10.76 29.76-56 60.44-70.47 60.44 10.56 0 59.27 0 70.47 0z"/>
			</g>
			<g id="&lt;Group&gt;">
				<path id="&lt;Compound Path&gt;" class="s2" d="m435.98 382.35v-15.71h-19.07v15.71h-8.19v-39.27h8.19v16.04h19.07v-16.04h8.19v39.27z"/>
				<path id="&lt;Compound Path&gt;" fill-rule="evenodd" class="s2" d="m449.22 367.43c0-9.2 6.84-15.49 15.59-15.49 9.42 0 15.48 6.29 15.48 15.49 0 1.12 0 1.51-0.11 3.19h-22.89c0.85 3.26 3.59 5.89 8.53 5.89 3.76 0 5.95-1 8.08-3.25l4.82 4.82c-2.69 2.47-6.5 4.83-13.24 4.83-10.49 0-16.26-6.28-16.26-15.48zm23.33-3.09c-0.45-3.14-2.91-6-7.4-6-4.88 0-7.3 2.92-8.08 6z"/>
				<path id="&lt;Compound Path&gt;" class="s2" d="m484.72 342.07c0-2.58 1.74-4.37 4.66-4.37 2.92 0 4.66 1.79 4.66 4.37 0 2.58-1.74 4.38-4.66 4.38-2.92 0-4.66-1.8-4.66-4.38zm0.79 40.28v-29.85h7.74v29.85z"/>
				<path id="&lt;Compound Path&gt;" fill-rule="evenodd" class="s2" d="m523.82 340.84h7.74v41.51h-7.34l-0.17-3.93c-1.85 2.41-5.28 4.49-10.21 4.49-8.75 0-15.49-6.73-15.49-15.48 0-8.75 6.74-15.49 15.49-15.49 4.77 0 8.08 1.91 9.98 4.21zm-8.8 35.62c5.1 0 9.03-3.87 9.03-9.03 0-5.05-3.93-9.03-9.03-9.03-5.11 0-9.04 3.98-9.04 9.03 0 5.16 3.93 9.03 9.04 9.03z"/>
				<path id="&lt;Compound Path&gt;" fill-rule="evenodd" class="s2" d="m536.44 367.43c0-9.2 6.85-15.49 15.6-15.49 9.42 0 15.48 6.29 15.48 15.49 0 1.12 0 1.51-0.11 3.19h-22.89c0.84 3.26 3.59 5.89 8.53 5.89 3.76 0 5.94-1 8.07-3.25l4.83 4.82c-2.69 2.47-6.51 4.83-13.24 4.83-10.49 0-16.27-6.28-16.27-15.48zm23.34-3.09c-0.45-3.14-2.92-6-7.41-6-4.88 0-7.29 2.92-8.07 6z"/>
				<path id="&lt;Compound Path&gt;" class="s2" d="m572.51 382.35v-41.51h7.74v41.51z"/>
				<path id="&lt;Compound Path&gt;" fill-rule="evenodd" class="s2" d="m594.55 356.15c1.91-2.3 5.22-4.21 9.99-4.21 8.75 0 15.48 6.74 15.48 15.49 0 8.75-6.73 15.48-15.48 15.48-4.94 0-8.36-2.08-10.21-4.49l-0.17 3.93h-7.35v-41.51h7.74zm8.81 2.24c-5.1 0-9.03 3.98-9.03 9.03 0 5.16 3.93 9.03 9.03 9.03 5.11 0 9.03-3.87 9.03-9.03 0-5.05-3.92-9.03-9.03-9.03z"/>
				<path id="&lt;Compound Path&gt;" fill-rule="evenodd" class="s2" d="m623.55 367.43c0-9.2 6.85-15.49 15.6-15.49 9.42 0 15.48 6.29 15.48 15.49 0 1.12 0 1.51-0.11 3.19h-22.89c0.84 3.26 3.59 5.89 8.53 5.89 3.76 0 5.94-1 8.08-3.25l4.82 4.82c-2.69 2.47-6.51 4.83-13.24 4.83-10.49 0-16.27-6.28-16.27-15.48zm23.34-3.09c-0.45-3.14-2.92-6-7.4-6-4.88 0-7.3 2.92-8.08 6z"/>
				<path id="&lt;Compound Path&gt;" class="s2" d="m659.62 382.35v-16.94c0-7.86 5.05-12.91 12.9-12.91h6.96v6.96h-5.16c-4.94 0-6.96 2.02-6.96 6.96v15.93z"/>
				<path id="&lt;Compound Path&gt;" fill-rule="evenodd" class="s2" d="m683.86 389.75l4.82-4.82c2.41 2.41 5.22 3.93 10.27 3.93 5.04 0 8.3-3.26 8.3-8.31v-1.85c-1.91 2.3-5.22 4.21-9.99 4.21-8.75 0-15.48-6.73-15.48-15.48 0-8.75 6.73-15.49 15.48-15.49 4.94 0 8.36 2.08 10.21 4.49l0.17-3.93h7.35v27.27c0 9.53-6.51 15.48-16.04 15.48-7.3 0-12.29-2.47-15.09-5.5zm14.58-13.29c5.11 0 9.03-3.87 9.03-9.03 0-5.05-3.92-9.04-9.03-9.04-5.1 0-9.03 3.99-9.03 9.04 0 5.16 3.93 9.03 9.03 9.03z"/>
				<path id="&lt;Compound Path&gt;" class="s2" d="m734.31 382.35v-39.27h7.74l13.18 19.75 13.41-19.75h7.52v39.27h-8.19v-25.47l-10.94 15.93h-3.59l-10.94-15.93v25.47z"/>
				<path id="&lt;Compound Path&gt;" fill-rule="evenodd" class="s2" d="m781.26 367.43c0-8.75 6.73-15.49 15.48-15.49 4.94 0 8.36 2.08 10.21 4.49l0.17-3.93h7.35v29.85h-7.35l-0.17-3.93c-1.85 2.41-5.27 4.49-10.21 4.49-8.75 0-15.48-6.73-15.48-15.48zm16.66 9.03c5.1 0 9.03-3.87 9.03-9.03 0-5.05-3.93-9.04-9.03-9.04-5.11 0-9.03 3.99-9.03 9.04 0 5.16 3.92 9.03 9.03 9.03z"/>
				<path id="&lt;Compound Path&gt;" class="s2" d="m825.07 359.46h-6.84v-6.96h6.84v-8.13h7.74v8.13h10.88v6.96h-10.88v10.21q0 5.72 5.72 5.72h5.16v6.96h-6.5c-7.97 0-12.12-4.15-12.12-12.12z"/>
				<path id="&lt;Compound Path&gt;" fill-rule="evenodd" class="s2" d="m847 367.43c0-9.2 6.84-15.49 15.6-15.49 9.42 0 15.48 6.29 15.48 15.49 0 1.12 0 1.51-0.11 3.19h-22.89c0.84 3.26 3.59 5.89 8.52 5.89 3.76 0 5.95-1 8.08-3.25l4.83 4.82c-2.7 2.47-6.51 4.83-13.24 4.83-10.49 0-16.27-6.28-16.27-15.48zm23.34-3.09c-0.45-3.14-2.92-6-7.41-6-4.88 0-7.29 2.92-8.08 6z"/>
				<path id="&lt;Compound Path&gt;" class="s2" d="m882.9 382.35v-16.94c0-7.86 5.05-12.91 12.9-12.91h6.96v6.96h-5.16c-4.94 0-6.96 2.02-6.96 6.96v15.93z"/>
				<path id="&lt;Compound Path&gt;" class="s2" d="m906.29 342.07c0-2.58 1.74-4.37 4.66-4.37 2.91 0 4.65 1.79 4.65 4.37 0 2.58-1.74 4.38-4.65 4.38-2.92 0-4.66-1.8-4.66-4.38zm0.79 40.28v-29.85h7.74v29.85z"/>
				<path id="&lt;Compound Path&gt;" fill-rule="evenodd" class="s2" d="m919.92 367.43c0-8.75 6.73-15.49 15.48-15.49 4.94 0 8.36 2.08 10.21 4.49l0.17-3.93h7.35v29.85h-7.35l-0.17-3.93c-1.85 2.41-5.27 4.49-10.21 4.49-8.75 0-15.48-6.73-15.48-15.48zm16.66 9.03c5.11 0 9.03-3.87 9.03-9.03 0-5.05-3.92-9.04-9.03-9.04-5.1 0-9.03 3.99-9.03 9.04 0 5.16 3.93 9.03 9.03 9.03z"/>
				<path id="&lt;Compound Path&gt;" class="s2" d="m959.64 382.35v-41.51h7.74v41.51z"/>
				<path id="&lt;Compound Path&gt;" class="s2" d="m971.36 377.86l4.82-4.82c2.25 2.24 6.51 3.59 10.66 3.59 4.27 0 5.95-0.9 5.95-2.47 0-1.68-1.68-2.47-8.25-3.7-7.68-1.46-12.23-3.82-12.23-9.43 0-5.83 6.01-9.09 13.75-9.09 6.51 0 11.22 2.19 13.85 4.83l-4.82 4.82c-1.8-1.79-4.99-3.36-9.14-3.36-3.82 0-5.89 0.89-5.89 2.46 0 1.58 1.4 2.25 8.58 3.71 6.95 1.4 11.89 3.59 11.89 9.42 0 5.84-5.33 9.09-14.19 9.09-7.29 0-12.06-2.13-14.98-5.05z"/>
			</g>
			<g id="&lt;Group&gt;">
				<path id="&lt;Path&gt;" class="s1" d="m455.32 166.5h-33.81q-4.62 0-6.73-2.03-2.12-2.02-2.12-6.42v-12.73h-11.04v13.83q0 8.71 4.18 13.22 4.18 4.51 13.03 4.51h47.58v-40.4h-11.09z"/>
				<path id="&lt;Path&gt;" class="s1" d="m434.19 192.95q1.32 0.79 2.82 0.79 1.58 0 2.9-0.79 1.32-0.79 2.09-2.13 0.77-1.35 0.77-2.93 0-1.54-0.77-2.86-0.77-1.32-2.09-2.11-1.32-0.8-2.9-0.8-1.5 0-2.82 0.8-1.32 0.79-2.09 2.13-0.77 1.34-0.77 2.84 0 1.54 0.77 2.9 0.77 1.37 2.09 2.16z"/>
				<path id="&lt;Path&gt;" class="s1" d="m624.7 127.5q1.32 0.79 2.86 0.79 1.54 0 2.84-0.79 1.3-0.8 2.07-2.09 0.77-1.3 0.77-2.8 0-1.58-0.75-2.93-0.75-1.34-2.07-2.13-1.32-0.79-2.86-0.79-1.54 0-2.88 0.79-1.35 0.79-2.12 2.13-0.77 1.35-0.77 2.93 0 1.5 0.8 2.8 0.79 1.29 2.11 2.09z"/>
				<path id="&lt;Compound Path&gt;" fill-rule="evenodd" class="s1" d="m808.25 116.76h11.18v60.12h-325.29q0 9.29-4.49 14.42-4.49 5.13-13.64 5.13h-4.58v-10.61h3.48q4.18 0 6.11-2.57 1.94-2.58 1.94-6.63v-40.14h11.18v30.02h114.05v-12.24q0-17.78 17.21-17.78h13.08v10.38h-10.3q-4.63 0-6.72 2.03-2.09 2.02-2.09 6.47v11.14h93.19v-30.02h21.26q17.25 0 17.25 17.78v12.24h57.18zm-68.36 38.6q0-4.44-2.11-6.47-2.11-2.02-6.73-2.02h-7.31v19.63h16.15z"/>
				<path id="&lt;Path&gt;" class="s1" d="m831.14 176.88h11.18v-60.12h-11.18z"/>
				<path id="&lt;Path&gt;" class="s1" d="m908.42 133.44q1.38 0.79 2.97 0.79 1.49 0 2.79-0.79 1.3-0.79 2.09-2.11 0.8-1.32 0.8-2.78 0-1.58-0.77-2.92-0.77-1.35-2.09-2.14-1.33-0.79-2.82-0.79-1.59 0-2.97 0.79-1.39 0.79-2.2 2.14-0.82 1.34-0.82 2.92 0 1.5 0.82 2.8 0.81 1.3 2.2 2.09z"/>
				<path id="&lt;Path&gt;" class="s1" d="m894.44 133.44q1.32 0.79 2.86 0.79 1.54 0 2.84-0.79 1.3-0.79 2.07-2.09 0.77-1.3 0.77-2.8 0-1.58-0.75-2.92-0.75-1.35-2.07-2.14-1.32-0.79-2.86-0.79-1.54 0-2.88 0.79-1.34 0.79-2.11 2.14-0.77 1.34-0.77 2.92 0 1.5 0.79 2.8 0.79 1.3 2.11 2.09z"/>
				<path id="&lt;Path&gt;" class="s1" d="m1055.37 127.5q1.32 0.79 2.86 0.79 1.54 0 2.84-0.79 1.3-0.8 2.07-2.09 0.77-1.3 0.77-2.8 0-1.58-0.75-2.93-0.75-1.34-2.07-2.13-1.32-0.79-2.86-0.79-1.54 0-2.88 0.79-1.34 0.79-2.11 2.13-0.77 1.35-0.77 2.93 0 1.5 0.79 2.8 0.79 1.29 2.11 2.09z"/>
				<path id="&lt;Compound Path&gt;" fill-rule="evenodd" class="s1" d="m941.58 176.88q-0.01 0-0.02 0-0.01 0-0.02 0h-53.44q-8.84 0-13.03-4.51-4.18-4.51-4.18-13.22v-13.83h11.05v12.73q0 4.4 2.11 6.42 2.12 2.03 6.74 2.03h33.8v-30.02h11.1v30.02h5.85q0.01 0 0.02 0 0.01 0 0.02 0h110.97v-30.02h11.1v30.02h74.78v-30.02h21.26q17.26 0 17.26 17.78v12.24h57.27v-27.12h11.18v27.12h10.3v-27.12h11.18v27.12h10.25v-30.02h11.18v40.4zm208.03-10.38h16.16v-11.14q0-4.45-2.11-6.47-2.12-2.03-6.74-2.03h-7.31z"/>
				<path id="&lt;Path&gt;" class="s1" d="m1311.2 116.76h-11.18v60.12h11.18z"/>
				<path id="&lt;Path&gt;" class="s1" d="m1303.37 199.33v-4.71q0-1.58 0.66-2.22 0.66-0.64 2.29-0.64h5.5v-5.24h-5.68q-4.44 0-6.36 1.85-1.91 1.85-1.91 6.08v4.88h-4.14v5.15h19.37v-5.15z"/>
			</g>
			<g id="&lt;Group&gt;">
				<path id="&lt;Path&gt;" class="s1" d="m423.95 246.98q2.51-2.61 5.94-3.96 3.44-1.36 7.3-1.36 4.55 0 8.27 1.84 3.72 1.84 6.72 5.12l10.15-11.5q-2.9-3.48-6.91-5.95-4.01-2.46-8.65-3.72-4.65-1.26-9.48-1.26-7.64 0-14.16 2.61-6.53 2.61-11.36 7.35-4.84 4.74-7.5 11.12-2.66 6.38-2.65 13.92 0 7.64 2.56 14.07 2.56 6.43 7.25 11.12 4.69 4.69 11.12 7.25 6.43 2.56 14.06 2.56 5.03 0 9.91-1.21 4.88-1.21 8.9-3.33 4.01-2.13 6.33-4.74l-8.02-12.76q-1.75 1.93-4.16 3.48-2.42 1.54-5.17 2.37-2.76 0.82-5.76 0.82-4.54 0-8.26-1.36-3.73-1.35-6.38-3.91-2.66-2.56-4.06-6.19-1.41-3.62-1.41-8.07 0-4.55 1.45-8.12 1.45-3.58 3.97-6.19z"/>
				<path id="&lt;Path&gt;" class="s1" d="m474.61 295.22h15.56v-51.33h-15.56z"/>
				<path id="&lt;Path&gt;" class="s1" d="m482.44 217.69q-4.35 0-6.87 2.22-2.51 2.22-2.51 5.8 0 3.87 2.47 5.95 2.46 2.07 6.91 2.07 4.25 0 6.72-2.22 2.46-2.22 2.46-5.8 0-3.87-2.46-5.95-2.47-2.07-6.72-2.07z"/>
				<path id="&lt;Compound Path&gt;" fill-rule="evenodd" class="s1" d="m647.86 258.39q1.74 4.74 1.64 10.34l-0.1 4.26h-35.18q0.43 1.59 1.2 2.99 1.79 3.19 5.22 4.93 3.43 1.74 8.17 1.74 3.19 0 5.8-0.96 2.61-0.97 5.61-3.29l7.25 10.25q-3 2.51-6.38 4.2-3.39 1.7-6.91 2.52-3.53 0.82-7.11 0.82-8.51 0-14.84-3.38-6.33-3.39-9.76-9.33-3.44-5.95-3.44-13.59 0-5.99 1.94-10.97 1.93-4.98 5.46-8.56 3.53-3.57 8.31-5.56 4.79-1.98 10.49-1.98 5.42 0 9.86 1.94 4.45 1.93 7.74 5.41 3.29 3.48 5.03 8.22zm-33.73 5.8h20.96v-0.2q-0.19-2.41-1.49-4.2-1.31-1.79-3.39-2.85-2.08-1.07-4.69-1.07-3.86 0-6.52 1.5-2.66 1.5-4.01 4.3-0.54 1.15-0.86 2.52z"/>
				<path id="&lt;Path&gt;" class="s1" d="m745.5 230.93h-15.56v12.96h-9.09v13.63h9.09v37.7h15.56v-37.7h9.86v-13.63h-9.86z"/>
				<path id="&lt;Path&gt;" class="s1" d="m802.15 270.76q-1.93-2.12-5.17-3.72-3.24-1.59-7.78-2.85-3.58-0.97-5.75-1.74-2.18-0.77-3.05-1.26-0.97-0.67-1.5-1.5-0.53-0.82-0.53-1.88 0-0.87 0.39-1.6 0.38-0.72 1.11-1.25 0.72-0.54 1.84-0.78 1.11-0.24 2.56-0.24 1.93 0 4.15 0.82 2.23 0.82 4.45 2.13 2.22 1.3 3.87 2.95l8.22-9.19q-2.61-2.41-5.95-4.15-3.33-1.74-7.15-2.71-3.82-0.97-8.08-0.97-5.41 0-10.05 1.98-4.64 1.99-7.49 5.56-2.86 3.58-2.86 8.32 0 3.09 1.02 5.6 1.01 2.52 2.95 4.45 2.12 2.13 5.46 3.77 3.34 1.65 7.88 2.81 3.19 0.77 5.22 1.49 2.03 0.73 2.8 1.21 1.65 0.97 1.65 2.9 0 0.97-0.39 1.7-0.39 0.72-1.11 1.25-0.73 0.53-1.69 0.82-0.97 0.29-2.23 0.29-3.38 0-7.15-1.4-3.77-1.4-6.77-4.4l-9.47 8.12q3.48 4.16 9.28 6.53 5.8 2.37 13.15 2.37 6.18 0 10.97-2.18 4.79-2.17 7.54-5.99 2.76-3.82 2.76-8.75 0-2.51-0.73-4.69-0.72-2.17-2.37-3.82z"/>
				<path id="&lt;Compound Path&gt;" fill-rule="evenodd" class="s1" d="m884.81 223.68h15.57v71.54h-14.5l-0.41-5.41q-1.34 1.51-3.22 2.75-2.56 1.7-5.75 2.66-3.19 0.97-6.77 0.97-6.58 0-11.84-3.38-5.27-3.39-8.27-9.43-3-6.04-3-13.78 0-7.73 3-13.77 3-6.05 8.27-9.53 5.27-3.48 11.94-3.48 3.48 0 6.72 1.07 3.23 1.06 5.8 2.9 1.36 0.98 2.46 2.1zm0.39 45.92q0-4.25-1.45-7.35-1.45-3.09-4.01-4.78-2.57-1.69-6.14-1.7-3.48 0.01-6.05 1.7-2.56 1.69-4.01 4.78-1.45 3.1-1.45 7.35 0 4.16 1.45 7.25 1.45 3.1 4.01 4.79 2.57 1.69 6.05 1.69 3.57 0 6.14-1.69 2.56-1.69 4.01-4.79 1.45-3.09 1.45-7.25z"/>
				<path id="&lt;Path&gt;" class="s1" d="m948.52 282.21h-9.08q-4.07 0-6.34-2.66-2.27-2.66-2.27-7.4v-29.39h-15.56v31.71q0 6.48 2.17 11.07 2.18 4.6 6.24 7.06 4.06 2.47 9.66 2.47l30.74-0.18v-0.79h0.01v-51.34h-15.57z"/>
				<path id="&lt;Path&gt;" class="s1" d="m701.72 245.23q-4.07-2.47-9.67-2.47l-30.73 0.19v0.78h-0.02v51.34h15.57v-39.45h9.09q4.06 0 6.33 2.66 2.27 2.66 2.27 7.4v29.39h15.57v-31.71q0-6.48-2.18-11.07-2.17-4.6-6.23-7.06z"/>
				<path id="&lt;Path&gt;" class="s1" d="m579.8 245.23q-4.06-2.47-9.67-2.47l-22.97 0.14-22.97-0.14q-5.61 0-9.67 2.47-4.06 2.46-6.23 7.06-2.18 4.59-2.18 11.07v31.71h15.57v-29.39q0-4.74 2.27-7.4 2.27-2.66 6.33-2.66h9.09v39.45h0.02 15.55 0.01v-39.45h9.09q4.06 0 6.33 2.66 2.28 2.66 2.28 7.4v29.39h15.56v-31.71q0-6.48-2.17-11.07-2.18-4.6-6.24-7.06z"/>
				<path id="&lt;Path&gt;" class="s1" d="m1049.36 259l-19.34-31.45h-14.79v67.67h16.15v-20.49q0-9.67-0.44-16.58c-0.07-1.1-0.2-2.16-0.29-3.24l15.13 23.78h6.57l15.69-24.3c-0.13 1.44-0.27 2.88-0.36 4.34q-0.44 7.1-0.44 16v20.49h16.05v-67.67h-14.31z"/>
				<path id="&lt;Compound Path&gt;" fill-rule="evenodd" class="s1" d="m1140.72 250.65q2.61 3.97 2.61 10.06v34.51h-14.99v-4.59q-0.07 0.07-0.14 0.14-2.85 2.52-6.19 3.97-3.33 1.45-7.01 1.45-4.83 0-8.75-1.93-3.91-1.94-6.19-5.37-2.27-3.43-2.27-8.07 0-3.97 1.45-6.96 1.45-3 4.31-4.98 2.85-1.98 7.15-3 4.3-1.02 10.01-1.02h7.63v-1.16q0-3.96-2.17-5.84-2.18-1.89-6.04-1.89-3.77 0-6.72 1.4-2.95 1.4-5.66 4.59l-9.28-8.99q4.64-4.73 10.63-7.44 6-2.71 13.06-2.71 6.47 0 11.21 1.94 4.74 1.93 7.35 5.89zm-12.38 30.09v-6.11h-7.25q-2.03 0-3.57 0.34-1.55 0.34-2.61 1.06-1.07 0.73-1.6 1.69-0.53 0.97-0.53 2.32 0 1.45 0.77 2.52 0.77 1.06 2.08 1.64 1.31 0.58 3.05 0.58 2.51 0 4.78-0.82 2.27-0.82 4.06-2.37c0.31-0.26 0.55-0.57 0.82-0.85z"/>
				<path id="&lt;Compound Path&gt;" fill-rule="evenodd" class="s1" d="m1252.77 255.73q3.58 6.04 3.58 13.87 0 7.64-3.58 13.68-3.58 6.05-9.81 9.48-6.24 3.43-14.26 3.43-7.93 0-14.22-3.43-6.28-3.43-9.86-9.48-3.58-6.04-3.57-13.68-0.01-7.83 3.57-13.87 3.58-6.04 9.86-9.48 6.29-3.43 14.22-3.43 8.02 0 14.26 3.43 6.23 3.44 9.81 9.48zm-12.28 13.87q0.1-3.96-1.45-7.01-1.55-3.04-4.25-4.73-2.71-1.7-6.09-1.7-3.39 0-6.1 1.74-2.7 1.74-4.25 4.74-1.55 3-1.55 6.96 0 3.77 1.55 6.77 1.55 3 4.25 4.74 2.71 1.74 6.1 1.74 3.48 0 6.13-1.74 2.66-1.74 4.21-4.74 1.55-3 1.45-6.77z"/>
				<path id="&lt;Path&gt;" class="s1" d="m1286.41 258.05q2.81-1.69 6.48-1.69 2.42 0 4.64 0.77 2.22 0.77 4.06 2.13 1.84 1.35 3.1 2.99l8.41-10.24q-3.29-4.26-9.04-6.72-5.76-2.47-12.62-2.47-7.44 0-13.39 3.48-5.95 3.48-9.33 9.53-3.38 6.04-3.38 13.77 0 7.54 3.38 13.59 3.38 6.04 9.33 9.52 5.95 3.48 13.39 3.48 6.57 0 12.47-2.47 5.9-2.46 9.19-6.52l-8.41-10.25q-1.55 1.74-3.34 3-1.79 1.25-3.92 1.93-2.12 0.68-4.64 0.68-3.48 0-6.28-1.74-2.8-1.74-4.4-4.69-1.59-2.95-1.59-6.62 0-3.77 1.54-6.77 1.55-3 4.35-4.69z"/>
				<path id="&lt;Path&gt;" class="s1" d="m1199.75 243.02l-23.55-0.14q-5.61 0-9.67 2.46-4.06 2.47-6.23 7.06-2.18 4.59-2.18 11.07v30.85c0 0.47 0.38 0.86 0.86 0.86h13.85c0.47 0 0.86-0.39 0.86-0.86v-28.53q0-4.74 2.27-7.4 2.27-2.66 6.33-2.66h8.28c0.26 0 0.5-0.11 0.66-0.31l9.17-11c0.46-0.55 0.07-1.4-0.65-1.4z"/>
			</g>
		</g>
	</g>
</svg>