<svg xmlns="http://www.w3.org/2000/svg" width="287.908" height="37.113" viewBox="0 0 287.908 37.113">
  <g id="Groupe_2798" data-name="Groupe 2798" transform="translate(-271.637 -279.168)">
    <line id="Ligne_24" data-name="Ligne 24" y2="33.012" transform="translate(471.164 283.269)" fill="none" stroke="#0064b0" stroke-width="1.5"/>
    <path id="Tracé_2128" data-name="Tracé 2128" d="M411.688,310.855a22.029,22.029,0,0,1-.168-2.774V297.343l0-.044a6.04,6.04,0,0,0-.1-1.082,6.255,6.255,0,0,0-3.557-4.494,10.406,10.406,0,0,0-2.475-.646,23.781,23.781,0,0,0-3.272-.227,17.994,17.994,0,0,0-3.54.352,10.134,10.134,0,0,0-3.169,1.179,7.452,7.452,0,0,0-.752.51l.005.008-.062.046-.064.046-.059.046a7.094,7.094,0,0,0-2.412,5.242v0l0,.1,0,.029h5.872a6.926,6.926,0,0,1,.356-1.736l0,0a2.862,2.862,0,0,1,1.86-1.726h0a6.085,6.085,0,0,1,1.783-.23,5.477,5.477,0,0,1,2.143.375l.048.02,0,0a2.448,2.448,0,0,1-.126,4.542c-.148.05-.3.1-.47.139a15.659,15.659,0,0,1-2.278.372c-.856.085-1.725.194-2.609.334a24.326,24.326,0,0,0-2.631.559c-.272.072-.757.263-.757.263a6.172,6.172,0,0,0-3.817,4.768,9.1,9.1,0,0,0-.045.911,8.18,8.18,0,0,0,.1,1.305,6.287,6.287,0,0,0,4.588,4.756,11.207,11.207,0,0,0,2.649.315,14.543,14.543,0,0,0,3.849-.576,7.658,7.658,0,0,0,3.311-2.03,9.085,9.085,0,0,0,.146,1.055,8.565,8.565,0,0,0,.271,1.018h5.963a4.97,4.97,0,0,1-.578-1.991m-6.045-6.289a11.207,11.207,0,0,1-.1,1.323,4.453,4.453,0,0,1-.559,1.637,3.874,3.874,0,0,1-1.409,1.387,5.184,5.184,0,0,1-2.692.582,8.39,8.39,0,0,1-1.363-.112,2.943,2.943,0,0,1-.4-.111,2.76,2.76,0,0,1-1.482-1.223,2.727,2.727,0,0,1-.346-.948V307.1l-.024-.208-.008-.235.008-.227.008-.084.081-.42a2.778,2.778,0,0,1,1.763-1.888h0l.172-.053a27.454,27.454,0,0,1,2.873-.574c.468-.07.918-.125,1.346-.209a9.782,9.782,0,0,0,1.2-.309,2.687,2.687,0,0,0,.932-.519Zm-46.37,6.289a21.653,21.653,0,0,1-.169-2.774V297.343l0-.044a6.04,6.04,0,0,0-.1-1.082,6.253,6.253,0,0,0-3.559-4.494,10.385,10.385,0,0,0-2.474-.646,23.777,23.777,0,0,0-3.271-.227,17.973,17.973,0,0,0-3.541.352,10.162,10.162,0,0,0-3.169,1.179,7.238,7.238,0,0,0-.752.51l.005.008-.062.046-.064.046-.057.046a7.1,7.1,0,0,0-2.416,5.242v.13h5.874a6.754,6.754,0,0,1,.357-1.736v0a2.862,2.862,0,0,1,1.86-1.726h0a6.09,6.09,0,0,1,1.781-.23,5.477,5.477,0,0,1,2.145.375l.046.02v0a2.448,2.448,0,0,1-.126,4.542c-.146.05-.3.1-.47.139a15.658,15.658,0,0,1-2.278.372c-.855.085-1.725.194-2.609.334a24.43,24.43,0,0,0-2.631.559c-.274.072-.758.263-.758.263a6.169,6.169,0,0,0-3.815,4.768,8.8,8.8,0,0,0-.046.911,8.18,8.18,0,0,0,.1,1.305,6.29,6.29,0,0,0,4.592,4.756,11.153,11.153,0,0,0,2.646.315,14.528,14.528,0,0,0,3.846-.576,7.641,7.641,0,0,0,3.313-2.03,9.078,9.078,0,0,0,.146,1.055,8.379,8.379,0,0,0,.27,1.018h5.964a4.969,4.969,0,0,1-.578-1.991m-6.044-6.289a11.068,11.068,0,0,1-.105,1.323,4.419,4.419,0,0,1-.56,1.637,3.837,3.837,0,0,1-1.407,1.387,5.187,5.187,0,0,1-2.692.582,8.378,8.378,0,0,1-1.362-.112,2.86,2.86,0,0,1-.4-.111,2.769,2.769,0,0,1-1.486-1.223,2.721,2.721,0,0,1-.343-.948l0-.006-.021-.208-.011-.235.01-.227.006-.084.082-.42a2.774,2.774,0,0,1,1.765-1.888h0l.17-.053a27.554,27.554,0,0,1,2.873-.574c.468-.07.919-.125,1.346-.209a9.782,9.782,0,0,0,1.2-.309,2.673,2.673,0,0,0,.933-.519Zm92.667-9.6a6.108,6.108,0,0,0-1.617-2.382,6.377,6.377,0,0,0-2.485-1.323,11.382,11.382,0,0,0-3.148-.414,6.88,6.88,0,0,0-3.873,1.076,9.126,9.126,0,0,0-2.587,2.484,5.211,5.211,0,0,0-2.55-2.774,8.594,8.594,0,0,0-3.7-.786,7.6,7.6,0,0,0-3.749.909,8.289,8.289,0,0,0-2.547,2.232v-2.563h-5.882v21.418h5.882V300.417a6.036,6.036,0,0,1,.455-2.545,4.121,4.121,0,0,1,1.1-1.493,3.617,3.617,0,0,1,1.324-.7c.144-.039.275-.071.4-.1a3.5,3.5,0,0,1,.565-.044,3.666,3.666,0,0,1,3.639,3.21l.013.2c.028.622.041,1.248.041,1.885v12.013h5.881V300.915a13.009,13.009,0,0,1,.148-1.967,5.224,5.224,0,0,1,.306-1.171l0,0a3.666,3.666,0,0,1,6.983.745l.019.153c.053.637.082,1.313.082,2.033v12.136h5.882V298.512a9.692,9.692,0,0,0-.58-3.543m-64.728,1.087a6.916,6.916,0,0,0-1.221-2.775,5.73,5.73,0,0,0-2.383-1.78,10,10,0,0,0-3.872-.642,8.157,8.157,0,0,0-2.522.4,7.843,7.843,0,0,0-3.589,2.509l-.269.39v-2.741h-5.883v21.436h5.883V301.628a7.939,7.939,0,0,1,1.078-4.7l.267-.311-.005,0a3.985,3.985,0,0,1,1.787-1.181,3.834,3.834,0,0,1,1.156-.176,3.9,3.9,0,0,1,3.7,2.67h0a10.261,10.261,0,0,1,.338,2.835v12.093h5.88V299.68a17.184,17.184,0,0,0-.352-3.624m-44.154,5.832a6.62,6.62,0,0,0-1.916-2.161,9.971,9.971,0,0,0-2.7-1.357c-1.007-.335-2.035-.619-3.075-.856q-1.614-.35-3.127-.651a19.017,19.017,0,0,1-2.694-.731l-.365-.14-.3-.132a5.7,5.7,0,0,1-.566-.3,2.511,2.511,0,0,1,.44-4.445,6.9,6.9,0,0,1,1.431-.331,12.852,12.852,0,0,1,1.434-.1,7.859,7.859,0,0,1,3.395.7,3.575,3.575,0,0,1,1.882,2.762h5.982a8.614,8.614,0,0,0-1.233-3.69,8.1,8.1,0,0,0-2.462-2.488,10.4,10.4,0,0,0-3.317-1.382,16.888,16.888,0,0,0-3.845-.429,20.838,20.838,0,0,0-3.7.352,11.422,11.422,0,0,0-3.516,1.233,7.888,7.888,0,0,0-2.613,2.312,5.9,5.9,0,0,0-1.03,3.543,6.982,6.982,0,0,0,.7,3.292,6.273,6.273,0,0,0,1.885,2.186,9.923,9.923,0,0,0,2.663,1.355,28.2,28.2,0,0,0,3.091.856c1.039.233,2.061.453,3.066.652a18.992,18.992,0,0,1,2.688.73,5.708,5.708,0,0,1,1.878,1.077l0,0a2.729,2.729,0,0,1,.014,3.975,3.723,3.723,0,0,1-1.157.7,8.106,8.106,0,0,1-1.936.477,15.537,15.537,0,0,1-1.834.126,7.528,7.528,0,0,1-3.971-1.005,4.321,4.321,0,0,1-1.91-3.518h-5.731a8.951,8.951,0,0,0,.934,3.995,8.116,8.116,0,0,0,2.415,2.815,10.673,10.673,0,0,0,3.627,1.683,17.822,17.822,0,0,0,4.56.555,19.125,19.125,0,0,0,4.078-.455,12.429,12.429,0,0,0,3.753-1.457,8.344,8.344,0,0,0,2.745-2.613,6.973,6.973,0,0,0,1.058-3.922,6.515,6.515,0,0,0-.731-3.215m52.639,10.958h-5.88V283.27h5.88Zm-101.278-6.583a20.231,20.231,0,0,0-.141,3.226v6.784l5.768,0h.006c.339,0,.531.013.784,0l.222-.014a1.953,1.953,0,0,0,.808-.256l.051-.031a2.209,2.209,0,0,0,1.092-1.906l-.005-.15c0-.791,0-2,0-2.54a9.59,9.59,0,0,1,.613-3.719l4.907-7.968-.008,0a2.2,2.2,0,0,0,.371-1.261v-.032a1.724,1.724,0,0,0-.283-.989l-.044-.054c-8.971-12.066-13.188-17.869-13.3-18.024l-.065-.092-.127-.066-.106.046,0,.005,0,0-.073.114-.091.148-.014.025c-1.235,2.136.041,4,.912,5.6.434.814.849,1.545,1.266,2.232v.005c.873,1.427,1.935,3.042,2.941,4.658a6.4,6.4,0,0,1,1.244,3.871,7.879,7.879,0,0,1-1.551,4.5c-1.087,1.705-2.5,2.616-4.038,4.032a3.335,3.335,0,0,0-1.136,1.862m-3.4-1.862c-1.533-1.416-2.947-2.327-4.035-4.032a7.879,7.879,0,0,1-1.551-4.5A6.426,6.426,0,0,1,280.627,292c1.012-1.616,2.074-3.231,2.946-4.658l0-.005c.418-.687.834-1.418,1.266-2.232.87-1.6,2.143-3.461.913-5.6l-.015-.025-.092-.148-.075-.114,0,0v-.005l-.107-.046-.128.066-.068.092c-.106.155-4.323,5.958-13.3,18.024l-.044.054a1.724,1.724,0,0,0-.284.989v.032a2.2,2.2,0,0,0,.373,1.261l-.007,0,4.9,7.968a9.587,9.587,0,0,1,.616,3.719c.005.539.005,1.749.005,2.54l-.007.15a2.209,2.209,0,0,0,1.092,1.906l.05.031a1.963,1.963,0,0,0,.8.256l.226.014c.251.016.445,0,.785,0h0l5.772,0v-6.784a20.356,20.356,0,0,0-.144-3.226,3.3,3.3,0,0,0-1.137-1.862m2.275-14.743a6.135,6.135,0,1,0,6.136,6.133,6.132,6.132,0,0,0-6.136-6.133" fill="#0064b0"/>
    <g id="Groupe_2797" data-name="Groupe 2797">
      <path id="Tracé_2129" data-name="Tracé 2129" d="M495.381,296.585h3.973L503.8,309.2h.045l4.334-12.62h3.929V312.7h-2.687v-12.44h-.045l-4.471,12.44h-2.325l-4.47-12.44h-.045V312.7h-2.687Z" fill="#0064b0"/>
      <path id="Tracé_2130" data-name="Tracé 2130" d="M525.024,310.108a1.377,1.377,0,0,0,.124.678.526.526,0,0,0,.487.2h.27a1.576,1.576,0,0,0,.361-.046v1.785c-.09.03-.207.063-.35.1s-.289.071-.439.1-.3.052-.453.067-.278.023-.383.023a2.489,2.489,0,0,1-1.31-.316,1.573,1.573,0,0,1-.677-1.106,4.557,4.557,0,0,1-1.885,1.084,7.455,7.455,0,0,1-2.156.338,5.325,5.325,0,0,1-1.513-.214,3.982,3.982,0,0,1-1.276-.633,3.032,3.032,0,0,1-.881-1.061,3.282,3.282,0,0,1-.326-1.5,3.462,3.462,0,0,1,.4-1.76,2.913,2.913,0,0,1,1.039-1.061,4.7,4.7,0,0,1,1.444-.554q.8-.168,1.614-.259a13.148,13.148,0,0,1,1.332-.192,6.139,6.139,0,0,0,1.118-.192,1.708,1.708,0,0,0,.767-.417,1.149,1.149,0,0,0,.283-.847,1.32,1.32,0,0,0-.238-.813,1.6,1.6,0,0,0-.586-.486,2.584,2.584,0,0,0-.779-.225,6.364,6.364,0,0,0-.813-.057,3.231,3.231,0,0,0-1.783.452,1.764,1.764,0,0,0-.791,1.4h-2.574a3.877,3.877,0,0,1,.543-1.874,3.74,3.74,0,0,1,1.207-1.2,4.979,4.979,0,0,1,1.66-.632,9.824,9.824,0,0,1,1.9-.18,7.962,7.962,0,0,1,1.693.18,4.82,4.82,0,0,1,1.5.587,3.233,3.233,0,0,1,1.072,1.05,2.88,2.88,0,0,1,.406,1.569Zm-2.573-3.251a3.118,3.118,0,0,1-1.445.463q-.858.079-1.716.238a5.615,5.615,0,0,0-.79.191,2.393,2.393,0,0,0-.678.339,1.5,1.5,0,0,0-.463.564,1.932,1.932,0,0,0-.169.847,1.085,1.085,0,0,0,.248.723,1.828,1.828,0,0,0,.6.463,2.777,2.777,0,0,0,.768.236,4.658,4.658,0,0,0,.756.068,4.2,4.2,0,0,0,.925-.113,3.076,3.076,0,0,0,.938-.384,2.47,2.47,0,0,0,.733-.688,1.742,1.742,0,0,0,.294-1.028Z" fill="#0064b0"/>
      <path id="Tracé_2131" data-name="Tracé 2131" d="M527.914,301.032h2.416v2.258h.045a2.635,2.635,0,0,1,.441-.926,4.285,4.285,0,0,1,.789-.824,4.034,4.034,0,0,1,1.028-.6,3.088,3.088,0,0,1,1.152-.225,5.917,5.917,0,0,1,.621.022c.113.015.229.031.35.045v2.484c-.182-.031-.365-.057-.553-.08a4.786,4.786,0,0,0-.554-.034,2.96,2.96,0,0,0-1.23.26,2.835,2.835,0,0,0-1.005.768,3.769,3.769,0,0,0-.678,1.253,5.411,5.411,0,0,0-.248,1.715V312.7h-2.574Z" fill="#0064b0"/>
      <path id="Tracé_2132" data-name="Tracé 2132" d="M540.941,313.021a6.369,6.369,0,0,1-2.495-.463,5.313,5.313,0,0,1-1.85-1.276,5.451,5.451,0,0,1-1.153-1.941,7.955,7.955,0,0,1,0-4.945,5.46,5.46,0,0,1,1.153-1.941,5.311,5.311,0,0,1,1.85-1.275,6.954,6.954,0,0,1,4.99,0,5.306,5.306,0,0,1,1.851,1.275,5.458,5.458,0,0,1,1.152,1.941,7.936,7.936,0,0,1,0,4.945,5.449,5.449,0,0,1-1.152,1.941,5.308,5.308,0,0,1-1.851,1.276A6.368,6.368,0,0,1,540.941,313.021Zm0-2.032a2.953,2.953,0,0,0,1.491-.361,3.147,3.147,0,0,0,1.038-.948,4.185,4.185,0,0,0,.6-1.322,5.92,5.92,0,0,0,0-2.991,4.028,4.028,0,0,0-.6-1.32,3.206,3.206,0,0,0-1.038-.938,3.257,3.257,0,0,0-2.981,0,3.211,3.211,0,0,0-1.039.938,3.988,3.988,0,0,0-.6,1.32,5.949,5.949,0,0,0,0,2.991,4.142,4.142,0,0,0,.6,1.322,3.151,3.151,0,0,0,1.039.948A2.952,2.952,0,0,0,540.941,310.989Z" fill="#0064b0"/>
      <path id="Tracé_2133" data-name="Tracé 2133" d="M556.971,304.938a2.417,2.417,0,0,0-.869-1.636,2.838,2.838,0,0,0-1.795-.554,3.692,3.692,0,0,0-1.061.17,2.5,2.5,0,0,0-1.039.632,3.526,3.526,0,0,0-.79,1.287,6.118,6.118,0,0,0-.316,2.156,6.3,6.3,0,0,0,.169,1.445,3.933,3.933,0,0,0,.542,1.287,2.941,2.941,0,0,0,.959.914,2.724,2.724,0,0,0,1.422.35,2.592,2.592,0,0,0,1.864-.7,3.263,3.263,0,0,0,.914-1.964h2.574a5.645,5.645,0,0,1-1.728,3.488,5.271,5.271,0,0,1-3.624,1.208,5.972,5.972,0,0,1-2.426-.463,5.145,5.145,0,0,1-1.773-1.264,5.383,5.383,0,0,1-1.1-1.908,7.464,7.464,0,0,1-.372-2.393,8.142,8.142,0,0,1,.362-2.461,5.614,5.614,0,0,1,1.084-2,5.05,5.05,0,0,1,1.794-1.332,6.044,6.044,0,0,1,2.517-.485,7.047,7.047,0,0,1,1.931.259,5.1,5.1,0,0,1,1.625.779A4.176,4.176,0,0,1,559,303.064a4.5,4.5,0,0,1,.542,1.874Z" fill="#0064b0"/>
    </g>
  </g>
</svg>
