<?xml version="1.0" encoding="UTF-8"?>
<svg id="Calque_1" data-name="Calque 1" xmlns="http://www.w3.org/2000/svg" version="1.1" viewBox="0 0 236 78">
  <defs>
    <style>
      .cls-1 {
        fill: #1166b0;
      }

      .cls-1, .cls-2 {
        stroke-width: 0px;
      }

      .cls-2 {
        fill: #fff;
      }
    </style>
  </defs>
  <rect class="cls-1" x="15.17" y="14.02" width="55.89" height="55.97"/>
  <rect class="cls-2" x="24.69" y="23.56" width="36.84" height="9.99"/>
  <polygon class="cls-2" points="38.12 60.44 38.12 43 48.11 36.82 48.11 60.44 38.12 60.44"/>
  <g>
    <path class="cls-1" d="M96.34,37.95v19.96h-5.34v-19.96h-7.16v-4.6h19.62v4.6h-7.12Z"/>
    <path class="cls-1" d="M102.96,48.73c0-7.59,6.59-9.61,10.05-9.61,4.74,0,9.48,3.23,9.64,9.17,0,1.41-.1,2.32-.1,2.32h-14.58c.6,3.03,4.03,3.36,5.04,3.36,2.79,0,4.17-1.51,4.74-2.15l3.9,2.25c-.74,1.01-3.23,4.3-8.64,4.3-3.6,0-10.05-2.05-10.05-9.65ZM108.1,47.05h9.24c-.2-1.68-1.85-3.53-4.37-3.53-2.89,0-4.67,1.65-4.87,3.53Z"/>
    <path class="cls-1" d="M125,48.73c0-5.31,4.54-9.61,10.05-9.61,3.9,0,7.19,1.92,9.07,5.38l-4.54,1.78c-1.11-1.85-2.72-2.75-4.54-2.75-2.92,0-5.04,2.22-5.04,5.21s2.15,5.21,5.07,5.21c1.81,0,3.49-.77,4.67-2.69l4.27,1.68c-1.78,3.63-4.71,5.44-8.94,5.44-5.51,0-10.08-4.34-10.08-9.65Z"/>
    <path class="cls-1" d="M164.08,46.99v10.92h-5.14v-10.92c0-2.86-1.61-3.73-3.56-3.73-1.38,0-3.63.84-3.53,4.87v9.78h-5.01v-18.48h5.01v1.65c1.24-1.24,3.29-1.98,4.94-1.98,5.34,0,7.29,3.09,7.29,7.9Z"/>
    <path class="cls-1" d="M170.9,37.48c-1.55,0-2.82-1.21-2.82-2.72s1.28-2.69,2.82-2.69,2.76,1.21,2.76,2.69-1.24,2.72-2.76,2.72ZM168.38,39.46h5.04v18.45h-5.04v-18.45Z"/>
    <path class="cls-1" d="M183.77,51.32c0,1.01.03,2.76,2.28,2.76.57,0,.97-.03,1.28-.07v4.23c-.6.07-1.55.13-2.25.13-3.9,0-6.28-.71-6.28-4.6v-10.25h-2.25v-4.4h2.25v-4.94h4.97v4.94h3.7v4.4h-3.7v7.8Z"/>
    <path class="cls-1" d="M204.5,56.06c-.77,1.04-2.99,2.25-5.61,2.25-5.85,0-9.27-4.34-9.27-9.65s3.43-9.64,9.27-9.64c2.69,0,4.67,1.08,5.61,2.32v-1.92h4.97v18.48h-4.97v-1.85ZM199.63,43.42c-3.19,0-5.07,2.22-5.07,5.24s1.98,5.21,5.07,5.21,5.07-1.98,5.07-5.21c0-3.06-1.95-5.24-5.07-5.24Z"/>
    <path class="cls-1" d="M212.57,55.45l2.62-3.5c1.45.98,3.76,1.98,5.98,1.98,1.55,0,2.65-.71,2.65-1.65,0-1.24-2.59-1.38-3.56-1.55-2.52-.44-7.33-1.18-7.33-5.81,0-5.41,5.85-5.85,7.63-5.85,2.92,0,5.28.84,7.7,2.66l-2.62,3.43c-1.38-.81-3.19-1.71-5.24-1.71-.97,0-2.42.47-2.42,1.38,0,1.24,2.69,1.55,3.49,1.65,3.13.54,7.36,1.08,7.36,5.85,0,3.83-2.76,6.02-7.59,6.02-3.97,0-6.65-1.28-8.67-2.89Z"/>
  </g>
</svg>